<svg id="Layer_1" data-name="Layer 1" xmlns="http://www.w3.org/2000/svg" viewBox="0 0 100 100"><defs><style>.cls-1{fill:none;}.cls-2{fill:#355d8a;}</style></defs><title>grafo-logomark-navy</title><rect class="cls-1" width="100" height="100"/><path class="cls-2" d="M93.08453,46.87177h-10.706v.014h-13.109v3.33246H64.051a2.4439,2.4439,0,0,1-2.17944-1.38678,11.43369,11.43369,0,0,0-12.5611-6.18365H49.3103a11.497,11.497,0,0,0-7.95794,6.19609A11.69865,11.69865,0,0,0,46.494,64.43939,11.40534,11.40534,0,0,0,61.81022,59.382q.0382-.07587.07528-.15231a2.41118,2.41118,0,0,1,2.16119-1.35834h5.2229V78.60645a1.43425,1.43425,0,0,1-.85333,1.30786,25.283,25.283,0,0,1-4.74957,1.77662,31.52684,31.52684,0,0,1-7.41748.80565,32.43068,32.43068,0,0,1-12.11573-2.18164A25.94667,25.94667,0,0,1,34.736,73.97168a28.59438,28.59438,0,0,1-6.07519-10.20313,41.137,41.137,0,0,1-2.148-13.82763,39.62439,39.62439,0,0,1,1.94678-12.7876,28.68192,28.68192,0,0,1,5.53759-9.8335,24.61643,24.61643,0,0,1,8.69287-6.34326,28.16938,28.16938,0,0,1,11.47852-2.249,51.39876,51.39876,0,0,1,6.17529.33594,32.00845,32.00845,0,0,1,5.23584,1.07373,31.166,31.166,0,0,1,4.8667,1.91308q2.38182,1.17554,5.06787,2.78565a7.03944,7.03944,0,0,0,5.269,1.20849,6.31438,6.31438,0,0,0,3.99414-2.88623l6.57812-10.002a44.722,44.722,0,0,0-6.7124-5.23584,45.64268,45.64268,0,0,0-8.29-4.16162,56.52539,56.52539,0,0,0-9.90088-2.75195A62.266,62.266,0,0,0,54.97382,0,58.97271,58.97271,0,0,0,33.59491,3.69189,47.05091,47.05091,0,0,0,17.28339,14.02881a45.28261,45.28261,0,0,0-10.3711,15.8081,54.18688,54.18688,0,0,0-3.62451,20.104A51.13,51.13,0,0,0,7.114,69.84326a45.954,45.954,0,0,0,10.874,15.8418A50.615,50.615,0,0,0,34.93719,96.15625a61.00141,61.00141,0,0,0,21.9834,3.793A62.94293,62.94293,0,0,0,74.675,97.46533c5.66064-1.65478,9.92743-4.31787,14.93963-7.98779V61.20538h3.46991a3.62764,3.62764,0,0,0,3.62769-3.62759v-7.0784a3.62763,3.62763,0,0,0-3.62766-3.62762Z"/></svg>