<svg id="Layer_1" data-name="Layer 1" xmlns="http://www.w3.org/2000/svg" viewBox="0 0 403.09125 100.00575"><defs><style>.cls-1{fill:#fff;}</style></defs><title>grafo-logotype-white</title><path class="cls-1" d="M399.46893,31.16045A46.5668,46.5668,0,0,0,389.285,15.502,47.462,47.462,0,0,0,373.46463,5.04867a53.39643,53.39643,0,0,0-20.54108-3.812,54.0434,54.0434,0,0,0-20.56195,3.7799,47.25977,47.25977,0,0,0-15.89428,10.41568,46.49425,46.49425,0,0,0-10.2175,15.65843c-.53043,1.326-.99524,2.67581-1.40421,4.0493a2.37072,2.37072,0,0,0,.84168,2.5432,15.631,15.631,0,0,1-.23169,24.95046,2.36,2.36,0,0,0-.88077,2.51668,48.347,48.347,0,0,0,1.675,4.958A46.12385,46.12385,0,0,0,332.3616,96.24664a57.6801,57.6801,0,0,0,41.103,0A46.09664,46.09664,0,0,0,399.469,70.10831a51.81944,51.81944,0,0,0,3.61658-19.50951A51.637,51.637,0,0,0,399.469,31.16047M378.26907,63.56884a27.24987,27.24987,0,0,1-5.33346,9.72476,22.703,22.703,0,0,1-8.53272,6.06906,29.72094,29.72094,0,0,1-11.47931,2.08956A30.22531,30.22531,0,0,1,341.348,79.36265a22.69054,22.69054,0,0,1-8.55368-6.06907,27.41916,27.41916,0,0,1-5.34463-9.72476,41.89354,41.89354,0,0,1-1.85779-12.97,41.6895,41.6895,0,0,1,1.85782-12.90445,27.38067,27.38067,0,0,1,5.34463-9.71917,23.01168,23.01168,0,0,1,8.55368-6.10677,29.8042,29.8042,0,0,1,11.57559-2.123,29.30723,29.30723,0,0,1,11.47931,2.123,23.02593,23.02593,0,0,1,8.53269,6.10677,27.21277,27.21277,0,0,1,5.33346,9.71917,41.68953,41.68953,0,0,1,1.85785,12.90445,41.893,41.893,0,0,1-1.85785,12.97" transform="translate(0.00341 -0.02637)"/><path class="cls-1" d="M310.2973.13312H257.017a8.453,8.453,0,0,0-8.39577,8.5072V70.18045a1.96395,1.96395,0,0,1-3.80235.71989L218.10959.98458a1.31478,1.31478,0,0,0-1.2254-.85146H195.44974a1.3137,1.3137,0,0,0-1.22553.85146L164.50278,78.78235a1.308,1.308,0,0,1-2.34777.21353l-8.58152-14.22242a20.21414,20.21414,0,0,0-3.49242-4.11568,21.29631,21.29631,0,0,0-2.003-1.58409,1.36369,1.36369,0,0,1-.30011-1.88753,1.33833,1.33833,0,0,1,.53887-.44325,31.42373,31.42373,0,0,0,6.02861-3.673,28.9455,28.9455,0,0,0,6.14575-6.49738,28.32161,28.32161,0,0,0,3.75893-7.9273,31.76571,31.76571,0,0,0,1.27586-9.11815,31.25966,31.25966,0,0,0-2.14816-11.70358,23.286,23.286,0,0,0-6.88419-9.32041,33.78508,33.78508,0,0,0-12.22063-6.158A64.54269,64.54269,0,0,0,126.1747.13312H99.64278A5.33306,5.33306,0,0,0,94.34419,5.5V45.27136a1.323,1.323,0,0,1-1.3135,1.3323h-27.489V49.9154H60.35788A2.42758,2.42758,0,0,1,58.193,48.53788a11.35733,11.35733,0,0,0-12.47731-6.14241h-.00012a11.42041,11.42041,0,0,0-7.90487,6.15471,11.62074,11.62074,0,0,0,5.1073,15.4915A11.32932,11.32932,0,0,0,58.1321,59.018q.038-.07538.07477-.15129a2.3949,2.3949,0,0,1,2.14678-1.34928h5.18806V78.1142a1.42477,1.42477,0,0,1-.84764,1.29914,25.11727,25.11727,0,0,1-4.71789,1.76476,31.31614,31.31614,0,0,1-7.368.80029A32.21418,32.21418,0,0,1,40.57327,79.8113a25.77353,25.77353,0,0,1-9.33478-6.30095,28.40354,28.40354,0,0,1-6.03469-10.135,40.863,40.863,0,0,1-2.13362-13.7354A39.36047,39.36047,0,0,1,25.004,36.93761a28.49044,28.49044,0,0,1,5.50066-9.7679,24.45209,24.45209,0,0,1,8.63489-6.30095,27.98129,27.98129,0,0,1,11.402-2.234,51.05727,51.05727,0,0,1,6.1341.3337A31.79512,31.79512,0,0,1,61.87649,20.035a30.959,30.959,0,0,1,4.83423,1.90032q2.366,1.1677,5.03408,2.76707a6.99247,6.99247,0,0,0,5.2339,1.20043,6.27228,6.27228,0,0,0,3.9675-2.867l6.53424-9.93523a44.42267,44.42267,0,0,0-6.66764-5.2009,45.33833,45.33833,0,0,0-8.23474-4.13386,56.14984,56.14984,0,0,0-9.83484-2.7336A61.85142,61.85142,0,0,0,51.34127.03211,58.57939,58.57939,0,0,0,30.105,3.69938a46.737,46.737,0,0,0-16.20272,10.268A44.98035,44.98035,0,0,0,3.60034,29.67,53.82519,53.82519,0,0,0,0,49.63991,50.789,50.789,0,0,0,3.80065,69.4095,45.64738,45.64738,0,0,0,14.60214,85.14563,50.27738,50.27738,0,0,0,31.4383,95.547a60.59458,60.59458,0,0,0,21.83677,3.76767,62.5235,62.5235,0,0,0,17.636-2.46733c5.62289-1.64373,9.86121-4.28907,14.84-7.93451V60.84167h7.27967a1.32172,1.32172,0,0,1,1.3135,1.32981v6.55929h6.13326a1.4411,1.4411,0,0,1,1.43215,1.4498v5.1438a2.15026,2.15026,0,0,1-1.192,1.93052,11.56935,11.56935,0,0,0-5.225,15.37788,11.28321,11.28321,0,0,0,15.02745,5.3663q.0749-.03549.14928-.07207a11.56942,11.56942,0,0,0,5.225-15.37788,11.42458,11.42458,0,0,0-5.29429-5.32823,1.9958,1.9958,0,0,1-1.09433-1.80326V70.21009a1.47044,1.47044,0,0,1,1.46132-1.47938H112.758a4.31267,4.31267,0,0,0,4.28525-4.33957v-.46338a1.32175,1.32175,0,0,1,1.31241-1.3309h4.46217a6.581,6.581,0,0,1,6.57983,3.53722l16.25171,28.783q2.48307,4.3554,8.19206,4.35328h20.562A7.33858,7.33858,0,0,0,179.13814,97.74a8.25827,8.25827,0,0,0,2.65211-3.43537l5.47156-16.37787a1.31737,1.31737,0,0,1,1.24651-.90518h35.31729a1.31351,1.31351,0,0,1,1.2436.90518l5.47313,16.37787a8.85681,8.85681,0,0,0,2.754,3.57257,7.60974,7.60974,0,0,0,4.76814,1.39311h32.07489a1.32186,1.32186,0,0,0,1.31479-1.32884V60.36077l.00147-4.5753a1.61233,1.61233,0,0,1,1.59961-1.62228h10.63342a2.39531,2.39531,0,0,1,2.14685,1.34927,11.32912,11.32912,0,0,0,15.13724,5.24991q.07608-.0369.15158-.07491a11.6207,11.6207,0,0,0,5.1073-15.49143,11.42029,11.42029,0,0,0-7.90479-6.15478h-.00024a11.35734,11.35734,0,0,0-12.47727,6.14241,2.42762,2.42762,0,0,1-2.16491,1.37759H273.05655a1.6117,1.6117,0,0,1-1.60108-1.6221V44.939l.00147-3.69558-.00147-18.37211a5.01328,5.01328,0,0,1,4.97794-5.04771h27.70688a7.52056,7.52056,0,0,0,7.47058-7.56947V1.46542A1.32315,1.32315,0,0,0,310.2973.13312ZM142.42641,37.31866V37.3186a12.63243,12.63243,0,0,1-3.022,4.93318,14.21287,14.21287,0,0,1-5.33914,3.29962,23.04427,23.04427,0,0,1-7.89062,1.19085h-7.818a1.323,1.323,0,0,1-1.31343-1.3323V18.67918a1.32167,1.32167,0,0,1,1.31234-1.33085h7.81914q8.79791,0,12.9938,3.67442,4.1957,3.67443,4.19716,10.20582A19.16431,19.16431,0,0,1,142.42641,37.31866Zm75.761,23.98287a1.299,1.299,0,0,1-.42258.07057h-23.1302a1.32337,1.32337,0,0,1-1.31563-1.331,1.3479,1.3479,0,0,1,.06912-.42707l8.41262-25.25558q1.00928-2.58612,2.1495-6.124l.05312-.16127a2.2835,2.2835,0,0,1,4.35637-.00849l.0223.0679q1.14117,3.50472,2.14817,6.09009l8.47979,25.39a1.336,1.336,0,0,1-.82255,1.68885Z" transform="translate(0.00341 -0.02637)"/></svg>